<?xml version="1.0" encoding="UTF-8"?>
<svg xmlns="http://www.w3.org/2000/svg" xmlns:xlink="http://www.w3.org/1999/xlink" width="5000" height="4500" viewBox="0 0 5000 4500">
<defs>
<clipPath id="clip-0">
<path clip-rule="nonzero" d="M 1983 4308 L 3016 4308 L 3016 4402 L 1983 4402 Z M 1983 4308 "/>
</clipPath>
<clipPath id="clip-1">
<path clip-rule="nonzero" d="M 2499.160156 4401.5 C 2214.210938 4401.5 1983.199219 4380.679688 1983.199219 4355.011719 C 1983.199219 4329.328125 2214.210938 4308.519531 2499.160156 4308.519531 C 2784.121094 4308.519531 3015.140625 4329.328125 3015.140625 4355.011719 C 3015.140625 4380.679688 2784.121094 4401.5 2499.160156 4401.5 "/>
</clipPath>
<clipPath id="clip-2">
<path clip-rule="nonzero" d="M 2499.160156 4401.5 C 2214.210938 4401.5 1983.199219 4380.679688 1983.199219 4355.011719 C 1983.199219 4329.328125 2214.210938 4308.519531 2499.160156 4308.519531 C 2784.121094 4308.519531 3015.140625 4329.328125 3015.140625 4355.011719 C 3015.140625 4380.679688 2784.121094 4401.5 2499.160156 4401.5 "/>
</clipPath>
<radialGradient id="radial-pattern-0" gradientUnits="userSpaceOnUse" cx="0" cy="0" fx="0" fy="0" r="281.2178" gradientTransform="matrix(1.834674, 0, 0, 0.165326, 2499.17, 4355.01)">
<stop offset="0" stop-color="rgb(48.098755%, 49.090576%, 49.838257%)" stop-opacity="1"/>
<stop offset="0.0078125" stop-color="rgb(48.451233%, 49.447632%, 50.192261%)" stop-opacity="1"/>
<stop offset="0.0117188" stop-color="rgb(48.687744%, 49.684143%, 50.427246%)" stop-opacity="1"/>
<stop offset="0.015625" stop-color="rgb(48.88916%, 49.890137%, 50.631714%)" stop-opacity="1"/>
<stop offset="0.0195312" stop-color="rgb(49.053955%, 50.057983%, 50.801086%)" stop-opacity="1"/>
<stop offset="0.0234375" stop-color="rgb(49.215698%, 50.22583%, 50.968933%)" stop-opacity="1"/>
<stop offset="0.0273438" stop-color="rgb(49.380493%, 50.392151%, 51.135254%)" stop-opacity="1"/>
<stop offset="0.03125" stop-color="rgb(49.612427%, 50.596619%, 51.332092%)" stop-opacity="1"/>
<stop offset="0.0351562" stop-color="rgb(49.923706%, 50.843811%, 51.560974%)" stop-opacity="1"/>
<stop offset="0.0390625" stop-color="rgb(50.245667%, 51.098633%, 51.797485%)" stop-opacity="1"/>
<stop offset="0.0429688" stop-color="rgb(50.569153%, 51.353455%, 52.032471%)" stop-opacity="1"/>
<stop offset="0.046875" stop-color="rgb(50.862122%, 51.60675%, 52.249146%)" stop-opacity="1"/>
<stop offset="0.0507812" stop-color="rgb(51.113892%, 51.853943%, 52.438354%)" stop-opacity="1"/>
<stop offset="0.0546875" stop-color="rgb(51.358032%, 52.102661%, 52.624512%)" stop-opacity="1"/>
<stop offset="0.0585938" stop-color="rgb(51.603699%, 52.351379%, 52.810669%)" stop-opacity="1"/>
<stop offset="0.0625" stop-color="rgb(51.831055%, 52.581787%, 53.001404%)" stop-opacity="1"/>
<stop offset="0.0664062" stop-color="rgb(52.038574%, 52.792358%, 53.199768%)" stop-opacity="1"/>
<stop offset="0.0703125" stop-color="rgb(52.23999%, 52.9953%, 53.399658%)" stop-opacity="1"/>
<stop offset="0.0742188" stop-color="rgb(52.441406%, 53.199768%, 53.601074%)" stop-opacity="1"/>
<stop offset="0.078125" stop-color="rgb(52.658081%, 53.419495%, 53.817749%)" stop-opacity="1"/>
<stop offset="0.0820312" stop-color="rgb(52.900696%, 53.666687%, 54.06189%)" stop-opacity="1"/>
<stop offset="0.0859375" stop-color="rgb(53.149414%, 53.919983%, 54.31366%)" stop-opacity="1"/>
<stop offset="0.0898438" stop-color="rgb(53.399658%, 54.176331%, 54.56543%)" stop-opacity="1"/>
<stop offset="0.09375" stop-color="rgb(53.634644%, 54.415894%, 54.785156%)" stop-opacity="1"/>
<stop offset="0.0976562" stop-color="rgb(53.849792%, 54.63562%, 54.951477%)" stop-opacity="1"/>
<stop offset="0.101562" stop-color="rgb(54.055786%, 54.844666%, 55.09491%)" stop-opacity="1"/>
<stop offset="0.105469" stop-color="rgb(54.263306%, 55.053711%, 55.239868%)" stop-opacity="1"/>
<stop offset="0.109375" stop-color="rgb(54.467773%, 55.264282%, 55.400085%)" stop-opacity="1"/>
<stop offset="0.113281" stop-color="rgb(54.676819%, 55.476379%, 55.595398%)" stop-opacity="1"/>
<stop offset="0.117188" stop-color="rgb(54.882812%, 55.688477%, 55.802917%)" stop-opacity="1"/>
<stop offset="0.121094" stop-color="rgb(55.091858%, 55.900574%, 56.011963%)" stop-opacity="1"/>
<stop offset="0.125" stop-color="rgb(55.299377%, 56.097412%, 56.216431%)" stop-opacity="1"/>
<stop offset="0.128906" stop-color="rgb(55.513%, 56.259155%, 56.410217%)" stop-opacity="1"/>
<stop offset="0.132812" stop-color="rgb(55.726624%, 56.404114%, 56.596375%)" stop-opacity="1"/>
<stop offset="0.136719" stop-color="rgb(55.940247%, 56.550598%, 56.785583%)" stop-opacity="1"/>
<stop offset="0.140625" stop-color="rgb(56.15387%, 56.710815%, 56.965637%)" stop-opacity="1"/>
<stop offset="0.144531" stop-color="rgb(56.365967%, 56.907654%, 57.12738%)" stop-opacity="1"/>
<stop offset="0.148438" stop-color="rgb(56.576538%, 57.124329%, 57.276917%)" stop-opacity="1"/>
<stop offset="0.152344" stop-color="rgb(56.790161%, 57.342529%, 57.427979%)" stop-opacity="1"/>
<stop offset="0.15625" stop-color="rgb(56.991577%, 57.550049%, 57.579041%)" stop-opacity="1"/>
<stop offset="0.160156" stop-color="rgb(57.171631%, 57.73468%, 57.740784%)" stop-opacity="1"/>
<stop offset="0.164062" stop-color="rgb(57.3349%, 57.902527%, 57.904053%)" stop-opacity="1"/>
<stop offset="0.167969" stop-color="rgb(57.499695%, 58.071899%, 58.070374%)" stop-opacity="1"/>
<stop offset="0.171875" stop-color="rgb(57.672119%, 58.248901%, 58.244324%)" stop-opacity="1"/>
<stop offset="0.175781" stop-color="rgb(57.868958%, 58.453369%, 58.44574%)" stop-opacity="1"/>
<stop offset="0.179688" stop-color="rgb(58.082581%, 58.674622%, 58.66394%)" stop-opacity="1"/>
<stop offset="0.183594" stop-color="rgb(58.297729%, 58.8974%, 58.883667%)" stop-opacity="1"/>
<stop offset="0.1875" stop-color="rgb(58.506775%, 59.112549%, 59.09729%)" stop-opacity="1"/>
<stop offset="0.191406" stop-color="rgb(58.691406%, 59.306335%, 59.286499%)" stop-opacity="1"/>
<stop offset="0.195312" stop-color="rgb(58.857727%, 59.477234%, 59.455872%)" stop-opacity="1"/>
<stop offset="0.199219" stop-color="rgb(59.024048%, 59.651184%, 59.62677%)" stop-opacity="1"/>
<stop offset="0.203125" stop-color="rgb(59.204102%, 59.831238%, 59.802246%)" stop-opacity="1"/>
<stop offset="0.207031" stop-color="rgb(59.451294%, 60.044861%, 60.002136%)" stop-opacity="1"/>
<stop offset="0.210938" stop-color="rgb(59.75647%, 60.28595%, 60.220337%)" stop-opacity="1"/>
<stop offset="0.214844" stop-color="rgb(60.063171%, 60.53009%, 60.441589%)" stop-opacity="1"/>
<stop offset="0.21875" stop-color="rgb(60.360718%, 60.765076%, 60.656738%)" stop-opacity="1"/>
<stop offset="0.222656" stop-color="rgb(60.594177%, 60.931396%, 60.838318%)" stop-opacity="1"/>
<stop offset="0.226562" stop-color="rgb(60.765076%, 61.035156%, 60.986328%)" stop-opacity="1"/>
<stop offset="0.230469" stop-color="rgb(60.9375%, 61.140442%, 61.13739%)" stop-opacity="1"/>
<stop offset="0.234375" stop-color="rgb(61.11145%, 61.248779%, 61.288452%)" stop-opacity="1"/>
<stop offset="0.238281" stop-color="rgb(61.325073%, 61.436462%, 61.462402%)" stop-opacity="1"/>
<stop offset="0.242188" stop-color="rgb(61.579895%, 61.705017%, 61.659241%)" stop-opacity="1"/>
<stop offset="0.246094" stop-color="rgb(61.836243%, 61.973572%, 61.859131%)" stop-opacity="1"/>
<stop offset="0.25" stop-color="rgb(62.091064%, 62.240601%, 62.055969%)" stop-opacity="1"/>
<stop offset="0.253906" stop-color="rgb(62.445068%, 62.538147%, 62.364197%)" stop-opacity="1"/>
<stop offset="0.261719" stop-color="rgb(62.898254%, 62.861633%, 62.780762%)" stop-opacity="1"/>
<stop offset="0.269531" stop-color="rgb(63.253784%, 63.156128%, 63.092041%)" stop-opacity="1"/>
<stop offset="0.273438" stop-color="rgb(63.510132%, 63.426208%, 63.294983%)" stop-opacity="1"/>
<stop offset="0.277344" stop-color="rgb(63.769531%, 63.700867%, 63.499451%)" stop-opacity="1"/>
<stop offset="0.28125" stop-color="rgb(64.027405%, 63.975525%, 63.703918%)" stop-opacity="1"/>
<stop offset="0.285156" stop-color="rgb(64.286804%, 64.251709%, 63.94043%)" stop-opacity="1"/>
<stop offset="0.289062" stop-color="rgb(64.547729%, 64.530945%, 64.212036%)" stop-opacity="1"/>
<stop offset="0.292969" stop-color="rgb(64.808655%, 64.810181%, 64.491272%)" stop-opacity="1"/>
<stop offset="0.296875" stop-color="rgb(65.068054%, 65.089417%, 64.768982%)" stop-opacity="1"/>
<stop offset="0.300781" stop-color="rgb(65.29541%, 65.333557%, 65.042114%)" stop-opacity="1"/>
<stop offset="0.304688" stop-color="rgb(65.478516%, 65.531921%, 65.30304%)" stop-opacity="1"/>
<stop offset="0.308594" stop-color="rgb(65.652466%, 65.722656%, 65.563965%)" stop-opacity="1"/>
<stop offset="0.3125" stop-color="rgb(65.826416%, 65.911865%, 65.823364%)" stop-opacity="1"/>
<stop offset="0.316406" stop-color="rgb(66.035461%, 66.108704%, 66.030884%)" stop-opacity="1"/>
<stop offset="0.320312" stop-color="rgb(66.287231%, 66.311646%, 66.165161%)" stop-opacity="1"/>
<stop offset="0.324219" stop-color="rgb(66.551208%, 66.519165%, 66.282654%)" stop-opacity="1"/>
<stop offset="0.328125" stop-color="rgb(66.818237%, 66.726685%, 66.398621%)" stop-opacity="1"/>
<stop offset="0.332031" stop-color="rgb(67.054749%, 66.955566%, 66.572571%)" stop-opacity="1"/>
<stop offset="0.335938" stop-color="rgb(67.243958%, 67.214966%, 66.836548%)" stop-opacity="1"/>
<stop offset="0.339844" stop-color="rgb(67.417908%, 67.485046%, 67.131042%)" stop-opacity="1"/>
<stop offset="0.34375" stop-color="rgb(67.59491%, 67.756653%, 67.425537%)" stop-opacity="1"/>
<stop offset="0.347656" stop-color="rgb(67.797852%, 68.011475%, 67.69104%)" stop-opacity="1"/>
<stop offset="0.351562" stop-color="rgb(68.04657%, 68.235779%, 67.904663%)" stop-opacity="1"/>
<stop offset="0.355469" stop-color="rgb(68.313599%, 68.449402%, 68.09845%)" stop-opacity="1"/>
<stop offset="0.359375" stop-color="rgb(68.582153%, 68.663025%, 68.292236%)" stop-opacity="1"/>
<stop offset="0.363281" stop-color="rgb(68.826294%, 68.873596%, 68.489075%)" stop-opacity="1"/>
<stop offset="0.367188" stop-color="rgb(69.114685%, 69.172668%, 68.786621%)" stop-opacity="1"/>
<stop offset="0.375" stop-color="rgb(69.473267%, 69.546509%, 69.177246%)" stop-opacity="1"/>
<stop offset="0.382812" stop-color="rgb(69.831848%, 69.847107%, 69.543457%)" stop-opacity="1"/>
<stop offset="0.390625" stop-color="rgb(70.101929%, 70.027161%, 69.801331%)" stop-opacity="1"/>
<stop offset="0.394531" stop-color="rgb(70.301819%, 70.1828%, 69.984436%)" stop-opacity="1"/>
<stop offset="0.398438" stop-color="rgb(70.544434%, 70.429993%, 70.199585%)" stop-opacity="1"/>
<stop offset="0.402344" stop-color="rgb(70.814514%, 70.727539%, 70.429993%)" stop-opacity="1"/>
<stop offset="0.40625" stop-color="rgb(71.086121%, 71.028137%, 70.661926%)" stop-opacity="1"/>
<stop offset="0.410156" stop-color="rgb(71.342468%, 71.311951%, 70.889282%)" stop-opacity="1"/>
<stop offset="0.414062" stop-color="rgb(71.643066%, 71.647644%, 71.208191%)" stop-opacity="1"/>
<stop offset="0.421875" stop-color="rgb(72.006226%, 72.041321%, 71.607971%)" stop-opacity="1"/>
<stop offset="0.429688" stop-color="rgb(72.369385%, 72.357178%, 71.903992%)" stop-opacity="1"/>
<stop offset="0.4375" stop-color="rgb(72.644043%, 72.540283%, 72.05658%)" stop-opacity="1"/>
<stop offset="0.441406" stop-color="rgb(72.834778%, 72.674561%, 72.171021%)" stop-opacity="1"/>
<stop offset="0.445312" stop-color="rgb(73.072815%, 72.860718%, 72.337341%)" stop-opacity="1"/>
<stop offset="0.449219" stop-color="rgb(73.347473%, 73.086548%, 72.546387%)" stop-opacity="1"/>
<stop offset="0.453125" stop-color="rgb(73.622131%, 73.313904%, 72.755432%)" stop-opacity="1"/>
<stop offset="0.457031" stop-color="rgb(73.890686%, 73.539734%, 72.966003%)" stop-opacity="1"/>
<stop offset="0.460938" stop-color="rgb(74.203491%, 73.860168%, 73.284912%)" stop-opacity="1"/>
<stop offset="0.46875" stop-color="rgb(74.479675%, 74.172974%, 73.605347%)" stop-opacity="1"/>
<stop offset="0.472656" stop-color="rgb(74.667358%, 74.382019%, 73.81897%)" stop-opacity="1"/>
<stop offset="0.476562" stop-color="rgb(74.902344%, 74.604797%, 74.034119%)" stop-opacity="1"/>
<stop offset="0.480469" stop-color="rgb(75.178528%, 74.835205%, 74.247742%)" stop-opacity="1"/>
<stop offset="0.484375" stop-color="rgb(75.456238%, 75.067139%, 74.464417%)" stop-opacity="1"/>
<stop offset="0.488281" stop-color="rgb(75.730896%, 75.299072%, 74.679565%)" stop-opacity="1"/>
<stop offset="0.492188" stop-color="rgb(76.052856%, 75.627136%, 75.006104%)" stop-opacity="1"/>
<stop offset="0.5" stop-color="rgb(76.425171%, 76.052856%, 75.445557%)" stop-opacity="1"/>
<stop offset="0.507812" stop-color="rgb(76.704407%, 76.373291%, 75.776672%)" stop-opacity="1"/>
<stop offset="0.511719" stop-color="rgb(76.890564%, 76.585388%, 75.996399%)" stop-opacity="1"/>
<stop offset="0.515625" stop-color="rgb(77.078247%, 76.802063%, 76.219177%)" stop-opacity="1"/>
<stop offset="0.519531" stop-color="rgb(77.264404%, 77.015686%, 76.44043%)" stop-opacity="1"/>
<stop offset="0.523438" stop-color="rgb(77.452087%, 77.230835%, 76.664734%)" stop-opacity="1"/>
<stop offset="0.527344" stop-color="rgb(77.638245%, 77.445984%, 76.887512%)" stop-opacity="1"/>
<stop offset="0.53125" stop-color="rgb(77.825928%, 77.664185%, 77.113342%)" stop-opacity="1"/>
<stop offset="0.535156" stop-color="rgb(78.013611%, 77.879333%, 77.337646%)" stop-opacity="1"/>
<stop offset="0.539062" stop-color="rgb(78.239441%, 78.106689%, 77.565002%)" stop-opacity="1"/>
<stop offset="0.542969" stop-color="rgb(78.514099%, 78.344727%, 77.789307%)" stop-opacity="1"/>
<stop offset="0.546875" stop-color="rgb(78.794861%, 78.587341%, 78.016663%)" stop-opacity="1"/>
<stop offset="0.550781" stop-color="rgb(79.075623%, 78.82843%, 78.244019%)" stop-opacity="1"/>
<stop offset="0.554688" stop-color="rgb(79.321289%, 79.06189%, 78.440857%)" stop-opacity="1"/>
<stop offset="0.558594" stop-color="rgb(79.519653%, 79.281616%, 78.599548%)" stop-opacity="1"/>
<stop offset="0.5625" stop-color="rgb(79.710388%, 79.499817%, 78.747559%)" stop-opacity="1"/>
<stop offset="0.566406" stop-color="rgb(79.899597%, 79.718018%, 78.895569%)" stop-opacity="1"/>
<stop offset="0.570312" stop-color="rgb(80.122375%, 79.948425%, 79.103088%)" stop-opacity="1"/>
<stop offset="0.574219" stop-color="rgb(80.392456%, 80.19104%, 79.393005%)" stop-opacity="1"/>
<stop offset="0.578125" stop-color="rgb(80.674744%, 80.441284%, 79.707336%)" stop-opacity="1"/>
<stop offset="0.582031" stop-color="rgb(80.957031%, 80.688477%, 80.021667%)" stop-opacity="1"/>
<stop offset="0.585938" stop-color="rgb(81.211853%, 80.931091%, 80.31311%)" stop-opacity="1"/>
<stop offset="0.589844" stop-color="rgb(81.417847%, 81.159973%, 80.561829%)" stop-opacity="1"/>
<stop offset="0.59375" stop-color="rgb(81.610107%, 81.385803%, 80.79834%)" stop-opacity="1"/>
<stop offset="0.597656" stop-color="rgb(81.800842%, 81.610107%, 81.034851%)" stop-opacity="1"/>
<stop offset="0.601562" stop-color="rgb(81.993103%, 81.835938%, 81.272888%)" stop-opacity="1"/>
<stop offset="0.605469" stop-color="rgb(82.183838%, 82.061768%, 81.509399%)" stop-opacity="1"/>
<stop offset="0.609375" stop-color="rgb(82.376099%, 82.289124%, 81.748962%)" stop-opacity="1"/>
<stop offset="0.613281" stop-color="rgb(82.568359%, 82.514954%, 81.987%)" stop-opacity="1"/>
<stop offset="0.617188" stop-color="rgb(82.76062%, 82.719421%, 82.196045%)" stop-opacity="1"/>
<stop offset="0.621094" stop-color="rgb(82.949829%, 82.879639%, 82.345581%)" stop-opacity="1"/>
<stop offset="0.625" stop-color="rgb(83.140564%, 83.018494%, 82.467651%)" stop-opacity="1"/>
<stop offset="0.628906" stop-color="rgb(83.329773%, 83.157349%, 82.588196%)" stop-opacity="1"/>
<stop offset="0.632812" stop-color="rgb(83.54187%, 83.323669%, 82.737732%)" stop-opacity="1"/>
<stop offset="0.636719" stop-color="rgb(83.802795%, 83.546448%, 82.948303%)" stop-opacity="1"/>
<stop offset="0.640625" stop-color="rgb(84.088135%, 83.80127%, 83.192444%)" stop-opacity="1"/>
<stop offset="0.644531" stop-color="rgb(84.376526%, 84.057617%, 83.436584%)" stop-opacity="1"/>
<stop offset="0.648438" stop-color="rgb(84.646606%, 84.309387%, 83.682251%)" stop-opacity="1"/>
<stop offset="0.652344" stop-color="rgb(84.965515%, 84.664917%, 84.051514%)" stop-opacity="1"/>
<stop offset="0.660156" stop-color="rgb(85.354614%, 85.115051%, 84.52301%)" stop-opacity="1"/>
<stop offset="0.667969" stop-color="rgb(85.740662%, 85.475159%, 84.875488%)" stop-opacity="1"/>
<stop offset="0.675781" stop-color="rgb(86.122131%, 85.772705%, 85.144043%)" stop-opacity="1"/>
<stop offset="0.683594" stop-color="rgb(86.509705%, 86.164856%, 85.539246%)" stop-opacity="1"/>
<stop offset="0.691406" stop-color="rgb(86.901855%, 86.637878%, 86.04126%)" stop-opacity="1"/>
<stop offset="0.699219" stop-color="rgb(87.294006%, 87.109375%, 86.5448%)" stop-opacity="1"/>
<stop offset="0.707031" stop-color="rgb(87.687683%, 87.585449%, 87.045288%)" stop-opacity="1"/>
<stop offset="0.714844" stop-color="rgb(88.082886%, 88.059998%, 87.463379%)" stop-opacity="1"/>
<stop offset="0.722656" stop-color="rgb(88.476562%, 88.528442%, 87.802124%)" stop-opacity="1"/>
<stop offset="0.730469" stop-color="rgb(88.868713%, 88.91449%, 88.192749%)" stop-opacity="1"/>
<stop offset="0.738281" stop-color="rgb(89.256287%, 89.216614%, 88.633728%)" stop-opacity="1"/>
<stop offset="0.746094" stop-color="rgb(89.64386%, 89.52179%, 89.076233%)" stop-opacity="1"/>
<stop offset="0.753906" stop-color="rgb(89.935303%, 89.750671%, 89.4104%)" stop-opacity="1"/>
<stop offset="0.757812" stop-color="rgb(90.129089%, 89.903259%, 89.633179%)" stop-opacity="1"/>
<stop offset="0.761719" stop-color="rgb(90.325928%, 90.097046%, 89.833069%)" stop-opacity="1"/>
<stop offset="0.765625" stop-color="rgb(90.524292%, 90.335083%, 90.008545%)" stop-opacity="1"/>
<stop offset="0.769531" stop-color="rgb(90.724182%, 90.577698%, 90.182495%)" stop-opacity="1"/>
<stop offset="0.773438" stop-color="rgb(90.924072%, 90.817261%, 90.356445%)" stop-opacity="1"/>
<stop offset="0.777344" stop-color="rgb(91.123962%, 91.062927%, 90.570068%)" stop-opacity="1"/>
<stop offset="0.78125" stop-color="rgb(91.323853%, 91.307068%, 90.830994%)" stop-opacity="1"/>
<stop offset="0.785156" stop-color="rgb(91.523743%, 91.555786%, 91.098022%)" stop-opacity="1"/>
<stop offset="0.789062" stop-color="rgb(91.723633%, 91.801453%, 91.363525%)" stop-opacity="1"/>
<stop offset="0.792969" stop-color="rgb(91.923523%, 92.010498%, 91.578674%)" stop-opacity="1"/>
<stop offset="0.796875" stop-color="rgb(92.118835%, 92.172241%, 91.72821%)" stop-opacity="1"/>
<stop offset="0.800781" stop-color="rgb(92.315674%, 92.324829%, 91.86554%)" stop-opacity="1"/>
<stop offset="0.804688" stop-color="rgb(92.50946%, 92.475891%, 92.002869%)" stop-opacity="1"/>
<stop offset="0.808594" stop-color="rgb(92.671204%, 92.619324%, 92.173767%)" stop-opacity="1"/>
<stop offset="0.8125" stop-color="rgb(92.782593%, 92.752075%, 92.390442%)" stop-opacity="1"/>
<stop offset="0.816406" stop-color="rgb(92.932129%, 92.944336%, 92.730713%)" stop-opacity="1"/>
<stop offset="0.824219" stop-color="rgb(93.151855%, 93.190002%, 93.087769%)" stop-opacity="1"/>
<stop offset="0.828125" stop-color="rgb(93.42041%, 93.447876%, 93.356323%)" stop-opacity="1"/>
<stop offset="0.832031" stop-color="rgb(93.717957%, 93.728638%, 93.635559%)" stop-opacity="1"/>
<stop offset="0.835938" stop-color="rgb(94.015503%, 94.009399%, 93.911743%)" stop-opacity="1"/>
<stop offset="0.839844" stop-color="rgb(94.281006%, 94.252014%, 94.14978%)" stop-opacity="1"/>
<stop offset="0.84375" stop-color="rgb(94.596863%, 94.506836%, 94.386292%)" stop-opacity="1"/>
<stop offset="0.851562" stop-color="rgb(94.992065%, 94.848633%, 94.711304%)" stop-opacity="1"/>
<stop offset="0.859375" stop-color="rgb(95.394897%, 95.288086%, 95.170593%)" stop-opacity="1"/>
<stop offset="0.867188" stop-color="rgb(95.776367%, 95.767212%, 95.69397%)" stop-opacity="1"/>
<stop offset="0.875" stop-color="rgb(96.055603%, 96.116638%, 96.076965%)" stop-opacity="1"/>
<stop offset="0.882812" stop-color="rgb(96.209717%, 96.310425%, 96.287537%)" stop-opacity="1"/>
<stop offset="0.886719" stop-color="rgb(96.331787%, 96.444702%, 96.429443%)" stop-opacity="1"/>
<stop offset="0.890625" stop-color="rgb(96.504211%, 96.59729%, 96.574402%)" stop-opacity="1"/>
<stop offset="0.894531" stop-color="rgb(96.702576%, 96.755981%, 96.720886%)" stop-opacity="1"/>
<stop offset="0.898438" stop-color="rgb(96.90094%, 96.913147%, 96.867371%)" stop-opacity="1"/>
<stop offset="0.902344" stop-color="rgb(97.183228%, 97.19696%, 97.15271%)" stop-opacity="1"/>
<stop offset="0.914062" stop-color="rgb(97.485352%, 97.535706%, 97.512817%)" stop-opacity="1"/>
<stop offset="0.921875" stop-color="rgb(97.802734%, 97.8302%, 97.80426%)" stop-opacity="1"/>
<stop offset="0.929688" stop-color="rgb(98.190308%, 98.161316%, 98.118591%)" stop-opacity="1"/>
<stop offset="0.9375" stop-color="rgb(98.486328%, 98.562622%, 98.5672%)" stop-opacity="1"/>
<stop offset="0.945312" stop-color="rgb(98.651123%, 98.908997%, 98.989868%)" stop-opacity="1"/>
<stop offset="0.949219" stop-color="rgb(98.770142%, 99.134827%, 99.261475%)" stop-opacity="1"/>
<stop offset="0.953125" stop-color="rgb(98.933411%, 99.325562%, 99.465942%)" stop-opacity="1"/>
<stop offset="0.957031" stop-color="rgb(99.234009%, 99.568176%, 99.691772%)" stop-opacity="1"/>
<stop offset="0.964844" stop-color="rgb(99.575806%, 99.819946%, 99.913025%)" stop-opacity="1"/>
<stop offset="0.972656" stop-color="rgb(99.859619%, 99.954224%, 99.990845%)" stop-opacity="1"/>
<stop offset="1" stop-color="rgb(100%, 100%, 100%)" stop-opacity="1"/>
</radialGradient>
</defs>
<g clip-path="url(#clip-0)">
<g clip-path="url(#clip-1)">
<g clip-path="url(#clip-2)">
<path fill-rule="nonzero" fill="url(#radial-pattern-0)" d="M 1983.199219 4308.519531 L 1983.199219 4401.5 L 3015.140625 4401.5 L 3015.140625 4308.519531 Z M 1983.199219 4308.519531 "/>
</g>
</g>
</g>
<path fill-rule="nonzero" fill="rgb(12.860107%, 11.213684%, 11.195374%)" fill-opacity="1" d="M 1835.441406 225.191406 L 1871.230469 225.191406 C 1884.039062 225.191406 1892.929688 223 1897.898438 218.621094 C 1902.871094 214.238281 1905.351562 208.191406 1905.351562 200.480469 C 1905.351562 192.699219 1902.699219 186.640625 1897.410156 182.289062 C 1892.109375 177.941406 1882.570312 175.769531 1868.78125 175.769531 L 1835.441406 175.769531 Z M 1835.441406 158.710938 L 1866.621094 158.710938 C 1873.019531 158.710938 1878.398438 158.351562 1882.75 157.628906 C 1887.101562 156.910156 1890.941406 155.019531 1894.269531 151.941406 C 1897.601562 148.871094 1899.269531 144.101562 1899.269531 137.628906 C 1899.269531 130.828125 1897.589844 125.808594 1894.21875 122.570312 C 1890.851562 119.339844 1886.828125 117.359375 1882.160156 116.640625 C 1877.488281 115.921875 1871.488281 115.558594 1864.171875 115.558594 L 1835.441406 115.558594 Z M 1898.089844 165.769531 C 1907.121094 168.511719 1913.859375 172.96875 1918.339844 179.148438 C 1922.820312 185.328125 1925.058594 192.441406 1925.058594 200.480469 C 1925.058594 208.519531 1923.03125 215.910156 1918.980469 222.640625 C 1914.929688 229.371094 1909.171875 234.320312 1901.71875 237.488281 C 1894.269531 240.671875 1884.171875 242.25 1871.421875 242.25 L 1816.421875 242.25 L 1816.421875 98.5 L 1870.339844 98.5 C 1887.800781 98.5 1900.101562 102.289062 1907.261719 109.878906 C 1914.421875 117.460938 1918 125.890625 1918 135.171875 C 1918 141.449219 1916.351562 147.25 1913.050781 152.578125 C 1909.75 157.910156 1904.761719 162.300781 1898.089844 165.769531 "/>
<path fill-rule="nonzero" fill="rgb(12.860107%, 11.213684%, 11.195374%)" fill-opacity="1" d="M 1966.539062 242.25 L 1948.890625 242.25 L 1948.890625 98.5 L 1966.539062 98.5 L 1966.539062 242.25 "/>
<path fill-rule="nonzero" fill="rgb(12.860107%, 11.213684%, 11.195374%)" fill-opacity="1" d="M 2035.859375 230.191406 C 2045.929688 230.191406 2053.570312 226.460938 2058.808594 219.011719 C 2064.03125 211.558594 2066.648438 201.75 2066.648438 189.589844 C 2066.648438 176.589844 2063.691406 166.78125 2057.78125 160.179688 C 2051.859375 153.578125 2044.550781 150.269531 2035.859375 150.269531 C 2026.898438 150.269531 2019.550781 153.628906 2013.800781 160.328125 C 2008.039062 167.03125 2005.171875 177.011719 2005.171875 190.28125 C 2005.171875 203.488281 2008.089844 213.441406 2013.949219 220.140625 C 2019.789062 226.839844 2027.101562 230.191406 2035.859375 230.191406 Z M 2035.859375 135.859375 C 2049.910156 135.859375 2061.570312 140.441406 2070.820312 149.589844 C 2080.070312 158.738281 2084.691406 171.75 2084.691406 188.609375 C 2084.691406 209.078125 2079.691406 223.539062 2069.691406 232 C 2059.691406 240.46875 2048.410156 244.699219 2035.859375 244.699219 C 2022.71875 244.699219 2011.308594 240.359375 2001.640625 231.660156 C 1991.960938 222.96875 1987.128906 209.171875 1987.128906 190.28125 C 1987.128906 171.980469 1991.800781 158.328125 2001.148438 149.339844 C 2010.5 140.359375 2022.070312 135.859375 2035.859375 135.859375 "/>
<path fill-rule="nonzero" fill="rgb(12.860107%, 11.213684%, 11.195374%)" fill-opacity="1" d="M 2190.390625 206.261719 C 2188.101562 219.539062 2182.878906 229.261719 2174.710938 235.441406 C 2166.53125 241.609375 2157.28125 244.699219 2146.960938 244.699219 C 2131.859375 244.699219 2120.191406 239.75 2111.949219 229.851562 C 2103.710938 219.941406 2099.601562 206.820312 2099.601562 190.480469 C 2099.601562 176.949219 2101.960938 166.109375 2106.699219 157.96875 C 2111.441406 149.828125 2117.378906 144.109375 2124.5 140.808594 C 2131.628906 137.511719 2139.109375 135.859375 2146.960938 135.859375 C 2157.679688 135.859375 2166.839844 138.640625 2174.460938 144.199219 C 2182.070312 149.75 2186.769531 157.921875 2188.53125 168.710938 L 2171.46875 171.359375 C 2169.699219 164.359375 2166.839844 159.101562 2162.890625 155.570312 C 2158.929688 152.039062 2153.878906 150.269531 2147.738281 150.269531 C 2137.871094 150.269531 2130.378906 153.769531 2125.289062 160.769531 C 2120.191406 167.761719 2117.640625 177.539062 2117.640625 190.089844 C 2117.640625 202.898438 2120.140625 212.789062 2125.140625 219.75 C 2130.140625 226.710938 2137.351562 230.191406 2146.761719 230.191406 C 2154.339844 230.191406 2160.308594 228.019531 2164.648438 223.671875 C 2169 219.320312 2171.730469 212.800781 2172.839844 204.109375 L 2190.390625 206.261719 "/>
<path fill-rule="nonzero" fill="rgb(12.860107%, 11.213684%, 11.195374%)" fill-opacity="1" d="M 2291.78125 242.25 L 2270.109375 242.25 L 2235.5 189.011719 L 2223.050781 200.871094 L 2223.050781 242.25 L 2205.398438 242.25 L 2205.398438 98.5 L 2223.050781 98.5 L 2223.050781 180.378906 L 2264.820312 138.210938 L 2287.761719 138.210938 L 2247.949219 176.75 L 2291.78125 242.25 "/>
<path fill-rule="nonzero" fill="rgb(12.860107%, 11.213684%, 11.195374%)" fill-opacity="1" d="M 2391.210938 206.261719 C 2388.921875 219.539062 2383.691406 229.261719 2375.519531 235.441406 C 2367.351562 241.609375 2358.101562 244.699219 2347.769531 244.699219 C 2332.671875 244.699219 2321 239.75 2312.769531 229.851562 C 2304.53125 219.941406 2300.410156 206.820312 2300.410156 190.480469 C 2300.410156 176.949219 2302.78125 166.109375 2307.519531 157.96875 C 2312.261719 149.828125 2318.191406 144.109375 2325.320312 140.808594 C 2332.441406 137.511719 2339.929688 135.859375 2347.769531 135.859375 C 2358.488281 135.859375 2367.660156 138.640625 2375.269531 144.199219 C 2382.890625 149.75 2387.578125 157.921875 2389.351562 168.710938 L 2372.28125 171.359375 C 2370.519531 164.359375 2367.660156 159.101562 2363.699219 155.570312 C 2359.75 152.039062 2354.699219 150.269531 2348.558594 150.269531 C 2338.679688 150.269531 2331.199219 153.769531 2326.101562 160.769531 C 2321 167.761719 2318.449219 177.539062 2318.449219 190.089844 C 2318.449219 202.898438 2320.949219 212.789062 2325.949219 219.75 C 2330.949219 226.710938 2338.160156 230.191406 2347.570312 230.191406 C 2355.160156 230.191406 2361.121094 228.019531 2365.46875 223.671875 C 2369.820312 219.320312 2372.539062 212.800781 2373.660156 204.109375 L 2391.210938 206.261719 "/>
<path fill-rule="nonzero" fill="rgb(12.860107%, 11.213684%, 11.195374%)" fill-opacity="1" d="M 2491.421875 242.25 L 2473.671875 242.25 L 2473.671875 176.550781 C 2473.671875 168.058594 2471.839844 161.679688 2468.179688 157.429688 C 2464.519531 153.191406 2459.058594 151.058594 2451.808594 151.058594 C 2444.609375 151.058594 2438.191406 153.558594 2432.539062 158.558594 C 2426.878906 163.558594 2424.058594 172.5 2424.058594 185.378906 L 2424.058594 242.25 L 2406.410156 242.25 L 2406.410156 98.5 L 2424.058594 98.5 L 2424.058594 150.078125 C 2432.421875 140.601562 2442.878906 135.859375 2455.429688 135.859375 C 2462.171875 135.859375 2468.609375 137.230469 2474.75 139.980469 C 2480.890625 142.730469 2485.210938 146.941406 2487.691406 152.628906 C 2490.179688 158.320312 2491.421875 166.230469 2491.421875 176.359375 L 2491.421875 242.25 "/>
<path fill-rule="nonzero" fill="rgb(12.860107%, 11.213684%, 11.195374%)" fill-opacity="1" d="M 2584.960938 196.460938 L 2584.960938 190.089844 C 2575.75 193.160156 2564.46875 195.589844 2551.128906 197.390625 C 2537.800781 199.191406 2531.128906 204.828125 2531.128906 214.308594 C 2531.128906 219.078125 2532.929688 223.019531 2536.53125 226.121094 C 2540.121094 229.230469 2545.28125 230.78125 2552.019531 230.78125 C 2560.710938 230.78125 2568.378906 228.179688 2575.011719 222.980469 C 2581.648438 217.789062 2584.960938 208.949219 2584.960938 196.460938 Z M 2608.300781 242.25 L 2589.769531 242.25 C 2588.070312 238.980469 2586.859375 234.699219 2586.140625 229.410156 C 2574.308594 239.601562 2561.53125 244.699219 2547.800781 244.699219 C 2536.820312 244.699219 2528.160156 241.960938 2521.820312 236.460938 C 2515.480469 230.96875 2512.308594 223.71875 2512.308594 214.699219 C 2512.308594 206.070312 2515.359375 198.960938 2521.46875 193.371094 C 2527.578125 187.78125 2538.191406 184.070312 2553.289062 182.238281 L 2569.769531 179.789062 C 2575.910156 178.808594 2580.980469 177.601562 2584.960938 176.160156 C 2584.960938 170.871094 2584.800781 167.121094 2584.46875 164.941406 C 2584.148438 162.75 2583.179688 160.46875 2581.578125 158.121094 C 2579.980469 155.769531 2577.410156 153.871094 2573.878906 152.429688 C 2570.351562 151 2565.609375 150.269531 2559.671875 150.269531 C 2552.078125 150.269531 2546.078125 151.679688 2541.671875 154.488281 C 2537.261719 157.300781 2534.238281 162.53125 2532.601562 170.179688 L 2515.339844 167.921875 C 2517.238281 157.269531 2522.109375 149.261719 2529.960938 143.898438 C 2537.800781 138.539062 2548.589844 135.859375 2562.308594 135.859375 C 2574.800781 135.859375 2583.96875 137.710938 2589.820312 141.398438 C 2595.671875 145.101562 2599.261719 149.558594 2600.601562 154.789062 C 2601.941406 160.019531 2602.609375 166.75 2602.609375 174.988281 L 2602.609375 198.710938 C 2602.609375 213.160156 2602.890625 222.851562 2603.449219 227.789062 C 2604 232.71875 2605.621094 237.539062 2608.300781 242.25 "/>
<path fill-rule="nonzero" fill="rgb(12.860107%, 11.213684%, 11.195374%)" fill-opacity="1" d="M 2647.421875 242.25 L 2629.769531 242.25 L 2629.769531 138.210938 L 2647.421875 138.210938 Z M 2647.421875 118.511719 L 2629.769531 118.511719 L 2629.769531 98.5 L 2647.421875 98.5 L 2647.421875 118.511719 "/>
<path fill-rule="nonzero" fill="rgb(12.860107%, 11.213684%, 11.195374%)" fill-opacity="1" d="M 2759.398438 242.25 L 2741.648438 242.25 L 2741.648438 179.011719 C 2741.648438 168.351562 2739.738281 161.03125 2735.921875 157.039062 C 2732.089844 153.058594 2726.78125 151.058594 2719.980469 151.058594 C 2714.75 151.058594 2709.800781 152.339844 2705.128906 154.878906 C 2700.460938 157.429688 2697.140625 161.03125 2695.179688 165.671875 C 2693.21875 170.308594 2692.238281 176.878906 2692.238281 185.378906 L 2692.238281 242.25 L 2674.578125 242.25 L 2674.578125 138.210938 L 2690.46875 138.210938 L 2690.46875 152.921875 L 2690.859375 152.921875 C 2694.589844 147.238281 2699.179688 142.96875 2704.640625 140.128906 C 2710.101562 137.28125 2716.421875 135.859375 2723.609375 135.859375 C 2729.101562 135.859375 2734.53125 136.839844 2739.890625 138.800781 C 2745.25 140.761719 2749.449219 143.710938 2752.488281 147.628906 C 2755.53125 151.550781 2757.441406 155.730469 2758.230469 160.179688 C 2759.011719 164.621094 2759.398438 170.640625 2759.398438 178.21875 L 2759.398438 242.25 "/>
<path fill-rule="nonzero" fill="rgb(12.860107%, 11.213684%, 11.195374%)" fill-opacity="1" d="M 2859.519531 242.25 L 2841.871094 242.25 L 2841.871094 138.210938 L 2859.519531 138.210938 Z M 2859.519531 118.511719 L 2841.871094 118.511719 L 2841.871094 98.5 L 2859.519531 98.5 L 2859.519531 118.511719 "/>
<path fill-rule="nonzero" fill="rgb(12.860107%, 11.213684%, 11.195374%)" fill-opacity="1" d="M 2971.691406 206.261719 C 2969.398438 219.539062 2964.171875 229.261719 2956 235.441406 C 2947.828125 241.609375 2938.578125 244.699219 2928.25 244.699219 C 2913.148438 244.699219 2901.480469 239.75 2893.25 229.851562 C 2885.011719 219.941406 2880.890625 206.820312 2880.890625 190.480469 C 2880.890625 176.949219 2883.261719 166.109375 2888 157.96875 C 2892.738281 149.828125 2898.671875 144.109375 2905.800781 140.808594 C 2912.921875 137.511719 2920.410156 135.859375 2928.25 135.859375 C 2938.96875 135.859375 2948.140625 138.640625 2955.761719 144.199219 C 2963.371094 149.75 2968.058594 157.921875 2969.828125 168.710938 L 2952.761719 171.359375 C 2951 164.359375 2948.140625 159.101562 2944.191406 155.570312 C 2940.230469 152.039062 2935.179688 150.269531 2929.039062 150.269531 C 2919.171875 150.269531 2911.679688 153.769531 2906.578125 160.769531 C 2901.480469 167.761719 2898.929688 177.539062 2898.929688 190.089844 C 2898.929688 202.898438 2901.429688 212.789062 2906.429688 219.75 C 2911.441406 226.710938 2918.640625 230.191406 2928.058594 230.191406 C 2935.640625 230.191406 2941.601562 228.019531 2945.949219 223.671875 C 2950.300781 219.320312 2953.03125 212.800781 2954.140625 204.109375 L 2971.691406 206.261719 "/>
<path fill-rule="nonzero" fill="rgb(12.860107%, 11.213684%, 11.195374%)" fill-opacity="1" d="M 3029.25 230.191406 C 3039.308594 230.191406 3046.960938 226.460938 3052.191406 219.011719 C 3057.421875 211.558594 3060.039062 201.75 3060.039062 189.589844 C 3060.039062 176.589844 3057.078125 166.78125 3051.160156 160.179688 C 3045.25 153.578125 3037.941406 150.269531 3029.25 150.269531 C 3020.289062 150.269531 3012.941406 153.628906 3007.191406 160.328125 C 3001.429688 167.03125 2998.558594 177.011719 2998.558594 190.28125 C 2998.558594 203.488281 3001.480469 213.441406 3007.328125 220.140625 C 3013.179688 226.839844 3020.488281 230.191406 3029.25 230.191406 Z M 3029.25 135.859375 C 3043.300781 135.859375 3054.949219 140.441406 3064.199219 149.589844 C 3073.449219 158.738281 3078.078125 171.75 3078.078125 188.609375 C 3078.078125 209.078125 3073.078125 223.539062 3063.078125 232 C 3053.070312 240.46875 3041.800781 244.699219 3029.25 244.699219 C 3016.109375 244.699219 3004.699219 240.359375 2995.03125 231.660156 C 2985.351562 222.96875 2980.511719 209.171875 2980.511719 190.28125 C 2980.511719 171.980469 2985.191406 158.328125 2994.539062 149.339844 C 3003.878906 140.359375 3015.449219 135.859375 3029.25 135.859375 "/>
<path fill-rule="nonzero" fill="rgb(12.860107%, 11.213684%, 11.195374%)" fill-opacity="1" d="M 3183.578125 242.25 L 3165.839844 242.25 L 3165.839844 179.011719 C 3165.839844 168.351562 3163.921875 161.03125 3160.101562 157.039062 C 3156.28125 153.058594 3150.960938 151.058594 3144.171875 151.058594 C 3138.941406 151.058594 3133.980469 152.339844 3129.308594 154.878906 C 3124.640625 157.429688 3121.320312 161.03125 3119.359375 165.671875 C 3117.398438 170.308594 3116.421875 176.878906 3116.421875 185.378906 L 3116.421875 242.25 L 3098.769531 242.25 L 3098.769531 138.210938 L 3114.648438 138.210938 L 3114.648438 152.921875 L 3115.039062 152.921875 C 3118.769531 147.238281 3123.359375 142.96875 3128.820312 140.128906 C 3134.28125 137.28125 3140.601562 135.859375 3147.789062 135.859375 C 3153.289062 135.859375 3158.710938 136.839844 3164.070312 138.800781 C 3169.429688 140.761719 3173.628906 143.710938 3176.671875 147.628906 C 3179.710938 151.550781 3181.621094 155.730469 3182.410156 160.179688 C 3183.191406 164.621094 3183.578125 170.640625 3183.578125 178.21875 L 3183.578125 242.25 "/>
<path fill-rule="nonzero" fill="rgb(12.860107%, 11.213684%, 11.195374%)" fill-opacity="1" d="M 1842.089844 3659.980469 L 2500 4039.820312 L 3157.910156 3659.980469 L 3157.910156 2900.289062 L 2500 2520.441406 L 1842.089844 2900.289062 Z M 2500 4176.898438 C 2489.019531 4176.898438 2478.03125 4174.058594 2468.191406 4168.378906 L 1746.660156 3751.800781 C 1726.980469 3740.441406 1714.851562 3719.441406 1714.851562 3696.710938 L 1714.851562 2863.558594 C 1714.851562 2840.828125 1726.980469 2819.828125 1746.660156 2808.460938 L 2468.191406 2391.890625 C 2487.871094 2380.53125 2512.128906 2380.53125 2531.808594 2391.890625 L 3253.339844 2808.460938 C 3273.019531 2819.828125 3285.140625 2840.828125 3285.140625 2863.558594 L 3285.140625 3696.710938 C 3285.140625 3719.441406 3273.019531 3740.441406 3253.339844 3751.800781 L 2531.808594 4168.378906 C 2521.96875 4174.058594 2510.980469 4176.898438 2500 4176.898438 "/>
<path fill-rule="nonzero" fill="rgb(12.860107%, 11.213684%, 11.195374%)" fill-opacity="1" d="M 2500 3343.75 C 2489.019531 3343.75 2478.03125 3340.910156 2468.191406 3335.230469 L 1746.660156 2918.648438 C 1716.238281 2901.089844 1705.808594 2862.179688 1723.378906 2831.75 C 1740.941406 2801.320312 1779.851562 2790.890625 1810.28125 2808.460938 L 2500 3206.671875 L 3189.71875 2808.460938 C 3220.148438 2790.890625 3259.050781 2801.320312 3276.621094 2831.75 C 3294.191406 2862.179688 3283.769531 2901.089844 3253.339844 2918.648438 L 2531.808594 3335.230469 C 2521.96875 3340.910156 2510.980469 3343.75 2500 3343.75 "/>
<path fill-rule="nonzero" fill="rgb(12.860107%, 11.213684%, 11.195374%)" fill-opacity="1" d="M 2500 4176.898438 C 2464.859375 4176.898438 2436.378906 4148.421875 2436.378906 4113.28125 L 2436.378906 3280.128906 C 2436.378906 3245 2464.859375 3216.519531 2500 3216.519531 C 2535.128906 3216.519531 2563.621094 3245 2563.621094 3280.128906 L 2563.621094 4113.28125 C 2563.621094 4148.421875 2535.128906 4176.898438 2500 4176.898438 "/>
<path fill-rule="nonzero" fill="rgb(12.860107%, 11.213684%, 11.195374%)" fill-opacity="1" d="M 1842.089844 1599.710938 L 2500 1979.558594 L 3157.910156 1599.710938 L 3157.910156 840.019531 L 2500 460.179688 L 1842.089844 840.019531 Z M 2500 2116.628906 C 2489.019531 2116.628906 2478.03125 2113.789062 2468.191406 2108.109375 L 1746.660156 1691.539062 C 1726.980469 1680.171875 1714.851562 1659.171875 1714.851562 1636.441406 L 1714.851562 803.289062 C 1714.851562 780.558594 1726.980469 759.558594 1746.660156 748.199219 L 2468.191406 331.621094 C 2487.871094 320.261719 2512.128906 320.261719 2531.808594 331.621094 L 3253.339844 748.199219 C 3273.019531 759.558594 3285.140625 780.558594 3285.140625 803.289062 L 3285.140625 1636.441406 C 3285.140625 1659.171875 3273.019531 1680.171875 3253.339844 1691.539062 L 2531.808594 2108.109375 C 2521.96875 2113.789062 2510.980469 2116.628906 2500 2116.628906 "/>
<path fill-rule="nonzero" fill="rgb(12.860107%, 11.213684%, 11.195374%)" fill-opacity="1" d="M 2500 1283.480469 C 2489.019531 1283.480469 2478.03125 1280.640625 2468.191406 1274.960938 L 1746.660156 858.390625 C 1716.238281 840.820312 1705.808594 801.910156 1723.378906 771.480469 C 1740.941406 741.058594 1779.851562 730.621094 1810.28125 748.199219 L 2500 1146.410156 L 3189.71875 748.199219 C 3220.148438 730.628906 3259.050781 741.058594 3276.621094 771.480469 C 3294.191406 801.910156 3283.769531 840.820312 3253.339844 858.390625 L 2531.808594 1274.960938 C 2521.96875 1280.640625 2510.980469 1283.480469 2500 1283.480469 "/>
<path fill-rule="nonzero" fill="rgb(12.860107%, 11.213684%, 11.195374%)" fill-opacity="1" d="M 2500 2116.628906 C 2464.859375 2116.628906 2436.378906 2088.148438 2436.378906 2053.019531 L 2436.378906 1219.871094 C 2436.378906 1184.730469 2464.859375 1156.25 2500 1156.25 C 2535.128906 1156.25 2563.621094 1184.730469 2563.621094 1219.871094 L 2563.621094 2053.019531 C 2563.621094 2088.148438 2535.128906 2116.628906 2500 2116.628906 "/>
<path fill-rule="nonzero" fill="rgb(12.860107%, 11.213684%, 11.195374%)" fill-opacity="1" d="M 3314.320312 2647.710938 L 3972.230469 3027.550781 L 4630.140625 2647.710938 L 4630.140625 1888.019531 L 3972.230469 1508.171875 L 3314.320312 1888.019531 Z M 3972.230469 3164.628906 C 3961.25 3164.628906 3950.261719 3161.789062 3940.421875 3156.101562 L 3218.890625 2739.53125 C 3199.210938 2728.160156 3187.078125 2707.171875 3187.078125 2684.441406 L 3187.078125 1851.289062 C 3187.078125 1828.558594 3199.210938 1807.558594 3218.890625 1796.191406 L 3940.421875 1379.621094 C 3960.101562 1368.25 3984.359375 1368.25 4004.039062 1379.621094 L 4725.570312 1796.191406 C 4745.25 1807.558594 4757.378906 1828.558594 4757.378906 1851.289062 L 4757.378906 2684.441406 C 4757.378906 2707.171875 4745.25 2728.160156 4725.570312 2739.53125 L 4004.039062 3156.101562 C 3994.199219 3161.789062 3983.210938 3164.628906 3972.230469 3164.628906 "/>
<path fill-rule="nonzero" fill="rgb(12.860107%, 11.213684%, 11.195374%)" fill-opacity="1" d="M 3972.230469 2331.480469 C 3961.25 2331.480469 3950.261719 2328.640625 3940.421875 2322.960938 L 3218.890625 1906.378906 C 3188.460938 1888.808594 3178.039062 1849.910156 3195.609375 1819.480469 C 3213.171875 1789.050781 3252.078125 1778.621094 3282.511719 1796.191406 L 3972.230469 2194.398438 L 4661.949219 1796.191406 C 4692.371094 1778.628906 4731.28125 1789.050781 4748.851562 1819.480469 C 4766.421875 1849.910156 4756 1888.808594 4725.570312 1906.378906 L 4004.039062 2322.960938 C 3994.199219 2328.640625 3983.210938 2331.480469 3972.230469 2331.480469 "/>
<path fill-rule="nonzero" fill="rgb(12.860107%, 11.213684%, 11.195374%)" fill-opacity="1" d="M 3972.230469 3164.628906 C 3937.101562 3164.628906 3908.609375 3136.140625 3908.609375 3101.011719 L 3908.609375 2267.859375 C 3908.609375 2232.730469 3937.101562 2204.238281 3972.230469 2204.238281 C 4007.359375 2204.238281 4035.851562 2232.730469 4035.851562 2267.859375 L 4035.851562 3101.011719 C 4035.851562 3136.140625 4007.359375 3164.628906 3972.230469 3164.628906 "/>
<path fill-rule="nonzero" fill="rgb(12.860107%, 11.213684%, 11.195374%)" fill-opacity="1" d="M 3076.140625 2818.308594 C 3053.761719 2818.308594 3032.050781 2806.480469 3020.429688 2785.5 C 3003.410156 2754.769531 3014.53125 2716.050781 3045.269531 2699.03125 L 3491.171875 2452.101562 C 3521.898438 2435.070312 3560.621094 2446.179688 3577.640625 2476.929688 C 3594.671875 2507.671875 3583.550781 2546.378906 3552.808594 2563.398438 L 3106.898438 2810.339844 C 3097.140625 2815.75 3086.570312 2818.308594 3076.140625 2818.308594 "/>
<path fill-rule="nonzero" fill="rgb(12.860107%, 11.213684%, 11.195374%)" fill-opacity="1" d="M 3413.191406 1821.070312 C 3402.761719 1821.070312 3392.191406 1818.5 3382.429688 1813.089844 L 2883.941406 1537.039062 C 2853.210938 1520.019531 2842.078125 1481.308594 2859.109375 1450.570312 C 2876.128906 1419.828125 2914.839844 1408.710938 2945.578125 1425.738281 L 3444.058594 1701.789062 C 3474.800781 1718.808594 3485.921875 1757.519531 3468.898438 1788.261719 C 3457.28125 1809.230469 3435.570312 1821.070312 3413.191406 1821.070312 "/>
<path fill-rule="nonzero" fill="rgb(12.860107%, 11.213684%, 11.195374%)" fill-opacity="1" d="M 369.859375 2647.710938 L 1027.769531 3027.550781 L 1685.679688 2647.710938 L 1685.679688 1888.019531 L 1027.769531 1508.171875 L 369.859375 1888.019531 Z M 1027.769531 3164.628906 C 1016.78125 3164.628906 1005.800781 3161.789062 995.960938 3156.101562 L 274.433594 2739.53125 C 254.746094 2728.160156 242.621094 2707.171875 242.621094 2684.441406 L 242.621094 1851.289062 C 242.621094 1828.558594 254.746094 1807.558594 274.433594 1796.191406 L 995.960938 1379.621094 C 1015.640625 1368.25 1039.898438 1368.25 1059.578125 1379.621094 L 1781.109375 1796.191406 C 1800.789062 1807.558594 1812.910156 1828.558594 1812.910156 1851.289062 L 1812.910156 2684.441406 C 1812.910156 2707.171875 1800.789062 2728.160156 1781.109375 2739.53125 L 1059.578125 3156.101562 C 1049.738281 3161.789062 1038.75 3164.628906 1027.769531 3164.628906 "/>
<path fill-rule="nonzero" fill="rgb(12.860107%, 11.213684%, 11.195374%)" fill-opacity="1" d="M 1027.769531 2331.480469 C 1016.78125 2331.480469 1005.800781 2328.640625 995.960938 2322.960938 L 274.433594 1906.378906 C 244.003906 1888.808594 233.578125 1849.910156 251.148438 1819.480469 C 268.710938 1789.050781 307.621094 1778.621094 338.050781 1796.191406 L 1027.769531 2194.398438 L 1717.488281 1796.191406 C 1747.921875 1778.621094 1786.820312 1789.050781 1804.390625 1819.480469 C 1821.960938 1849.910156 1811.53125 1888.808594 1781.109375 1906.378906 L 1059.578125 2322.960938 C 1049.738281 2328.640625 1038.75 2331.480469 1027.769531 2331.480469 "/>
<path fill-rule="nonzero" fill="rgb(12.860107%, 11.213684%, 11.195374%)" fill-opacity="1" d="M 1027.769531 3164.628906 C 992.632812 3164.628906 964.152344 3136.140625 964.152344 3101.011719 L 964.152344 2267.859375 C 964.152344 2232.730469 992.632812 2204.238281 1027.769531 2204.238281 C 1062.898438 2204.238281 1091.390625 2232.730469 1091.390625 2267.859375 L 1091.390625 3101.011719 C 1091.390625 3136.140625 1062.898438 3164.628906 1027.769531 3164.628906 "/>
<path fill-rule="nonzero" fill="rgb(12.860107%, 11.213684%, 11.195374%)" fill-opacity="1" d="M 1945.871094 2830.511719 C 1935.449219 2830.511719 1924.871094 2827.941406 1915.109375 2822.53125 L 1447.191406 2563.398438 C 1416.449219 2546.378906 1405.328125 2507.671875 1422.359375 2476.929688 C 1439.378906 2446.191406 1478.089844 2435.070312 1508.828125 2452.101562 L 1976.75 2711.21875 C 2007.488281 2728.25 2018.601562 2766.960938 2001.578125 2797.699219 C 1989.96875 2818.671875 1968.261719 2830.511719 1945.871094 2830.511719 "/>
<path fill-rule="nonzero" fill="rgb(12.860107%, 11.213684%, 11.195374%)" fill-opacity="1" d="M 1586.808594 1821.070312 C 1564.421875 1821.070312 1542.710938 1809.230469 1531.101562 1788.261719 C 1514.078125 1757.519531 1525.199219 1718.808594 1555.929688 1701.789062 L 2054.421875 1425.738281 C 2085.148438 1408.710938 2123.871094 1419.828125 2140.890625 1450.570312 C 2157.910156 1481.308594 2146.800781 1520.019531 2116.058594 1537.039062 L 1617.570312 1813.089844 C 1607.808594 1818.5 1597.230469 1821.070312 1586.808594 1821.070312 "/>
</svg>
